# xmcd
#
# Track frame offsets:
#	150
#	19289
#	40842
#	62344
#	78104
#	99054
#	130373
#	149891
#	173910
#	193978
#
# Disc length: 2923 seconds
#
# Revision: 1
# Processed by: cddbd v1.5.2PL0 Copyright (c) Steve Scherf et al.
# Submitted via: audiograbber 1.83.01
#
DISCID=860b690a
DTITLE=Mister Doo - Bring Me Gasoline
DYEAR=2006
DGENRE=Acoustic Blues
TTITLE0=Is That A Monkey You Got ?
TTITLE1=Sweet Michelle (Larry's Got A Secret)
TTITLE2=Comfortable Blues
TTITLE3=Walkin My Blues Away
TTITLE4=Peter Hodge
TTITLE5=Phineas Gage
TTITLE6=Mr Handy (Wrote The Blues)
TTITLE7=Comfortable Blues
TTITLE8=The Jelly Man
TTITLE9=She's Funny That Way
EXTD=
EXTT0=
EXTT1=
EXTT2=
EXTT3=
EXTT4=
EXTT5=
EXTT6=
EXTT7=
EXTT8=
EXTT9=
PLAYORDER=
